<svg width="56" height="56" viewBox="0 0 56 56" xmlns="http://www.w3.org/2000/svg"><path fill="#181B1E" d="M0 0h56v56H0z"/><path fill-rule="evenodd" d="M28 45a17 17 0 1 0 0-34 17 17 0 0 0 0 34Zm0-1a16 16 0 1 0 0-32 16 16 0 0 0 0 32Z" fill="#FDFDFF"/><path d="m29.13 13.35.75.95.04.26c.01.05 0 .1-.05.14-.27.24-.55.27-.84.1a.28.28 0 0 0-.16-.04l-1.2.06.37-1.7c.27-.08.55-.2.8-.05a.9.9 0 0 1 .29.28Z" fill="#CBC0BC"/><path d="m28.04 13.12-.36 1.7a1 1 0 0 1-.67.08c-.05 0-.07 0-.09.05l-.01.06c-.01.04 0 .06.05.05a6.75 6.75 0 0 1 1.87-.11c.22.02.22.06.01.13-.67.22-1.39.3-2.14.25l-.13-.02h-.02a.04.04 0 0 1-.02-.04v-.01c0-.02.02-.04.05-.04.13-.3.2-.62.2-.94l.1-.28a.15.15 0 0 0 .04-.09l.36-.56c.1-.28.36-.35.76-.23Z" fill="#EDE1DA"/><path d="M30.12 14.88a.32.32 0 0 0-.11.15.68.68 0 0 1-.36-.08.2.2 0 0 0-.15 0l-1.11.37c-.43.14-1.14.06-1.56.08-.33.01-.82.15-.64.59a.1.1 0 0 0 .06.05.1.1 0 0 0 .07 0l.29-.12a.42.42 0 0 0-.18.2c-.13.14-.22.29-.28.45-.23-.15-.32-.26-.25-.31-.29-.27-.35-.52-.2-.78a.2.2 0 0 1 .13-.1c.27-.06.56-.08.87-.05.75.05 1.47-.03 2.14-.25.21-.07.2-.11-.01-.13a6.75 6.75 0 0 0-1.87.11c-.05 0-.06 0-.05-.05l.01-.06c.02-.04.04-.06.09-.05a1 1 0 0 0 .67-.08l1.19-.06c.06 0 .11.01.16.04.3.17.57.14.84-.1a.14.14 0 0 0 .05-.14l-.04-.26c-.08-.25.06-.3.44-.15.05.02.07.05.05.1l-.25.63Z" fill="#84584C"/><path d="M31.74 14.36c-.12.3-.06.54.18.73-.02.28-.12.54-.29.8a.72.72 0 0 1-.37.35l.12-.43c.14-.44.07-.85-.38-1.06a.16.16 0 0 1-.06-.05.14.14 0 0 1-.03-.07c0-.09.01-.18.05-.26.02-.07.1-.12.2-.14.23-.05.42 0 .58.13Z" fill="#CBC0BC"/><path d="M31.74 14.36c.02.04.04.06.08.07l.11.43c0 .07 0 .14.03.2a.17.17 0 0 0-.04.03c-.24-.2-.3-.44-.18-.73ZM25 14.52c.41.43.94.66 1.58.7-.03 0-.04.02-.05.04a.04.04 0 0 0 0 .03l.02.01.02.01.13.02c-.3-.03-.6-.01-.87.06a.2.2 0 0 0-.13.09c-.15.26-.09.51.2.78a.43.43 0 0 1-.33-.23l-.7-.9-.15-.4a.55.55 0 0 1 0-.23c.02-.06.06-.08.13-.07.04 0 .1.04.15.09Z" fill="#EEEFE8"/><path d="M30.12 14.88c.37.1.7.27.98.5.04.03.06.07.04.12-.1.37-.26.71-.5 1.03l-.3-.22c.45-.46.02-.93-.33-1.28a.32.32 0 0 1 .1-.15Z" fill="#64442F"/><path d="M30 15.03c.36.35.79.82.33 1.28-.35-.15-.6-.1-.75.16a.14.14 0 0 1-.12.07c-1 .04-1.35-.2-2.15-.63-.17-.1-.4-.09-.7.01l-.29.12a.1.1 0 0 1-.1-.02.1.1 0 0 1-.03-.03c-.18-.44.31-.58.64-.6.42-.01 1.13.07 1.56-.07.37-.12.74-.24 1.11-.38a.2.2 0 0 1 .15.01c.13.06.25.09.36.08Z" fill="#623A13"/><path d="m30.33 16.3.3.23.47-.36-.17.47a.72.72 0 0 1-.28.14 2.26 2.26 0 0 0-1.22-.03l-1-.02-.82-.2a.22.22 0 0 1-.12-.09 1.4 1.4 0 0 0-.5-.42.21.21 0 0 0-.17-.01l-.4.12a.42.42 0 0 1 .19-.2c.3-.11.53-.12.7-.02.8.43 1.16.67 2.15.63.05 0 .1-.03.12-.07.14-.26.4-.3.75-.16Z" fill="#9C6C30"/><path d="m28.43 16.73-2.28-.08v-.08c.06-.16.15-.3.28-.44l.39-.12a.21.21 0 0 1 .16.01c.21.1.38.25.5.42.04.05.08.07.13.09l.82.2Z" fill="#ECAB2D"/><path d="m26.15 16.65 2.28.08 1 .02.4.05c.05 0 .07.03.05.09a.27.27 0 0 1-.1.11l-.88.29a.82.82 0 0 1-.59-.16.15.15 0 0 0-.04-.1c-.04-.05-.09-.06-.14-.03a.48.48 0 0 0-.13.1h-.2a2.41 2.41 0 0 0-1.53.51l-.59-.51c.01-.22.17-.36.47-.45Z" fill="#EEEFE8"/><path d="M30.65 16.78c.42.8.62 1.6.6 2.4a2.88 2.88 0 0 1-1.01-1.75l.1-.27a.12.12 0 0 0-.02-.13.14.14 0 0 0-.13-.04.93.93 0 0 1-.4.01.27.27 0 0 0 .1-.11c.01-.06 0-.09-.07-.1l-.39-.04c.48-.1.89-.09 1.22.03Z" fill="#E5CDB0"/><path d="M28.31 17.13a.39.39 0 0 1-.2.3c-.2 0-.23-.11-.1-.33a.48.48 0 0 1 .12-.1c.05-.03.1-.02.14.02.03.03.04.06.04.11Z" fill="#2C1C10"/><path d="M26.27 17.61c-.07.08-.05.17.08.27.02.1.02.13 0 .08-.08.29-.08.57.01.84.02.05.05.1.1.12l.55.26.47.59c.1.13.08.18-.1.13-1-.28-1.63-.95-1.9-1.99l.2-.81.6.51Z" fill="#FDF0B7"/><path d="M28 17.1c-.12.22-.08.33.11.33-.22.2-.38.4-.48.6-.45.27-.87.25-1.28-.07.02.05.02.03 0-.08.87.2 1.35-.06 1.44-.78H28Z" fill="#957048"/><path d="M28.9 17.29h-.27c-.06 0-.1.03-.1.1 0 .14.06.27.18.39.14.38.47.57 1 .55.32.8-.18 1.38-.75 1.9l-.81.39c-.06.02-.08.07-.08.13.03.25.19.4.45.46.23.05.44.12.63.18.07.03.08.06.04.12l-.12.16a.18.18 0 0 1-.13.08l-.5.05-.81-1.16a.1.1 0 0 1-.02-.1.11.11 0 0 1 .07-.07c.27-.08.52-.23.76-.44a.28.28 0 0 0 .07-.08c.11-.24 0-.41-.34-.53l-.15-.13c.35-.03.7-.08 1.04-.15.25-.05.41-.13.5-.26.15-.19.1-.26-.14-.2-.77.2-1.6.21-2.46.02l.8.01c.05 0 .09-.02.11-.07.21-.45.13-.65-.24-.61.1-.2.26-.4.48-.6a.39.39 0 0 0 .2-.3c.16.12.36.18.6.16Z" fill="#ECAB2D"/><path d="M30.24 17.43c.11.69.45 1.27 1 1.75a.33.33 0 0 0-.02.16c-.53.9-1.3.8-2.21.99l.01-.01c.02-.03.02-.05-.01-.07a.13.13 0 0 0-.05-.01c.57-.53 1.07-1.12.76-1.91.15.02.25-.12.3-.42l.22-.48Z" fill="#D9A74E"/><path d="M30.02 17.91c-.05.3-.15.44-.3.42-.54.02-.87-.17-1-.55.47.28.91.32 1.3.13Z" fill="#64442F"/><path d="m27 19.18 1.02.11.15.13-.22.65a.26.26 0 0 1-.13.15.28.28 0 0 1-.2.02 6.9 6.9 0 0 1-1.37-.57c-.2-.1-.49-.17-.84-.17-.1-.55-.07-1.07.07-1.59.27 1.04.9 1.7 1.9 1.99.18.05.2 0 .1-.13l-.47-.59Z" fill="#FBE279"/><path d="M26.35 17.96c.4.32.83.34 1.28.07.37-.04.45.16.24.6a.12.12 0 0 1-.12.08l-.8-.01-.22-.03c-.07-.01-.1.01-.1.08s.04.13.1.19c.1.06.19.15.28.24l-.54-.26a.19.19 0 0 1-.1-.12 1.4 1.4 0 0 1-.02-.84Z" fill="#FBE279"/><path d="M23.54 19.05c.02.15.04.52.04 1.1 0 .25-.07.39-.22.42l-.13.03a.4.4 0 0 0 0-.16.92.92 0 0 0-.08-.6c.07-.06.09-.17.05-.33.02-.15.04-.3.04-.45 0-.07.1-.07.3-.01Z" fill="#BCB7D5"/><path d="M28.17 19.42c.34.12.45.29.34.53a.28.28 0 0 1-.07.08 2.31 2.31 0 0 1-.8.47.1.1 0 0 0-.03.1l.02.04.81 1.15c-.3 0-.56.07-.78.21a.27.27 0 0 1-.33-.02l-1.44-1.31a2.16 2.16 0 0 1-.43-.6 1.1 1.1 0 0 0-.05-.57c.35 0 .63.06.84.17.45.25.91.44 1.37.57.07.02.14.01.2-.02s.1-.08.13-.15l.22-.65Z" fill="#FDC934"/><path d="M31.22 19.34c-.01.43-.16.84-.43 1.2l-1.32 1.08-.47.46a1.2 1.2 0 0 0-1.1.11.63.63 0 0 1-.4.1c-.05-.08-.11-.1-.17-.09l-.34-.3-.9-.8c.03-.14-.03-.25-.19-.34-.01-.02-.02-.06 0-.1l1.43 1.32a.27.27 0 0 0 .33.02c.22-.14.48-.2.78-.2l.5-.05c.06 0 .1-.03.13-.08l.12-.16c.04-.06.03-.1-.04-.12-.19-.06-.4-.13-.63-.18-.27-.06-.42-.21-.45-.46 0-.06.02-.1.08-.13l.81-.38c.02 0 .03 0 .05.02.03.01.03.03.01.06H29v.01c.91-.18 1.7-.08 2.22-.99Z" fill="#B57B28"/><path d="m23.19 19.5.01.01c.04.16.02.27-.05.32-.37.12-.73-.03-1 .28-.03-.1-.08-.17-.16-.2-.28-.07-.29-.17-.02-.28.34-.14.75-.18 1.22-.13Z" fill="#50BEB1"/><path d="M23.15 19.83c.1.17.13.37.09.61 0-.13-.04-.23-.1-.3-.04-.03-.08-.04-.14-.02-.45.18-1.04.47-1.25.91-.1.2-.21.3-.34.25-.03-.48.21-.87.74-1.17.27-.31.63-.16 1-.28Z" fill="#FBE279"/><path d="M23.24 20.44v.16l-1.27.9-.15.09a.34.34 0 0 1-.2.06.14.14 0 0 1-.12-.08l-.1-.18.01-.11c.13.04.24-.04.34-.25.21-.44.8-.73 1.25-.91.06-.02.1-.01.14.03.06.06.1.16.1.3Z" fill="#FDC934"/><path d="M30.79 20.55a.6.6 0 0 0-.12.3c.55.72.23 1.45-.32 2.07a.19.19 0 0 1-.14.06.97.97 0 0 1-.5-.08.14.14 0 0 1-.05-.06.13.13 0 0 1-.01-.08c.07-.5.01-.89-.18-1.14l1.32-1.07Z" fill="#3A3A55"/><path d="m23.36 20.57.27.38a.19.19 0 0 1-.05.26.2.2 0 0 1-.09.04.43.43 0 0 0-.25.13.2.2 0 0 1-.14.07l-1.13.05 1.26-.9.13-.03Z" fill="#623A13"/><path d="m26.08 21.1.72 1.38c.01.03.04.06.07.07a.18.18 0 0 0 .2-.02.16.16 0 0 0 .05-.08c.04-.16 0-.34-.13-.54l.34.29c.09.45-.18.6-.58.5-.18-.04-.31 0-.39.11a.26.26 0 0 1-.41.02c-.42-.5-.34-1.32-.2-1.9a.35.35 0 0 0 .15-.17c.16.1.22.2.18.33Z" fill="#877BBB"/><path d="m26.08 21.1.91.8c.13.21.17.4.13.55-.01.03-.03.06-.06.08a.18.18 0 0 1-.2.02.17.17 0 0 1-.06-.07l-.72-1.39Z" fill="#D9D6EF"/><path d="M21.82 21.59a.18.18 0 0 1-.05.06c-.06.02-.03.13.08.32a.17.17 0 0 1-.04.21.18.18 0 0 1-.06.04l-.26.09a.24.24 0 0 0-.13.1c-.17.26-.42.46-.74.6-.08-.28-.04-.5.1-.67.16-.2.12-.27-.13-.23-.19.03-.45.1-.8.22-.18.06-.31.22-.45.27-.16.05-.18.02-.08-.11.5-.61 1.15-.93 1.97-.95.07 0 .13-.05.18-.15l.1.18c.02.05.06.07.12.08.06 0 .12-.02.19-.06Z" fill="#07AC91"/><path d="m32.53 21.63 1.22.34.07.05a.14.14 0 0 1 .02.15 11.85 11.85 0 0 1-1.3.61c-.06.03-.12 0-.17-.06l-.02-.17a.2.2 0 0 1 .06-.17l.28-.28c.05-.04.07-.09.06-.15a.12.12 0 0 0-.06-.08c-.03-.02-.06-.02-.1 0-.32.08-.65.12-1.02.1-.05 0-.1.01-.15.04a.33.33 0 0 1-.14.04l-.03-.01a.07.07 0 0 1-.03-.03.06.06 0 0 1 .01-.07c.36-.37.79-.47 1.3-.31Z" fill="#015D53"/><path d="m24.85 21.8-.54.15a.13.13 0 0 0-.09.08.12.12 0 0 0 .03.12l.11.1.2.44c.04.29-.15.27-.58-.05.12-.22-.11-.37-.7-.44h-.04a.07.07 0 0 0-.03.03.07.07 0 0 0 0 .08l.05.1-.28-.13a.2.2 0 0 1-.1-.08.2.2 0 0 1 .02-.22.2.2 0 0 1 .1-.06l.53-.17c.43 0 .96-.39 1.32.04Z" fill="#088F81"/><path d="M24.85 21.8c.07.02.16.04.28.05.02.09.03.18.01.27 0 .06-.04.09-.1.1-.13 0-.3-.03-.5-.09-.11-.03-.17.01-.18.11a.42.42 0 0 1-.11-.1.12.12 0 0 1 .01-.17.13.13 0 0 1 .05-.02l.54-.16Z" fill="#015D53"/><path d="m23.98 22.64-.72-.23a.25.25 0 0 0-.05-.1.07.07 0 0 1 0-.08l.03-.03h.04c.59.07.82.22.7.44Z" fill="#50BEB1"/><path d="M34.82 22.77c.12.17.27.3.46.36.06.02.1 0 .11-.06l.02-.07a1 1 0 0 1 .03.02c.15.32.12.54-.08.68a.16.16 0 0 1-.17.02l-1.02-.47a.32.32 0 0 0-.38.09l-.34.43-1.12.3c-.06.02-.09 0-.08-.06a.65.65 0 0 1 .3-.53 1.63 1.63 0 0 0 1.32-.95c.13-.1.26-.14.37-.12.17.04.37.16.58.36Z" fill="#E49D29"/><path d="m22.93 22.45.58 1.44c-.76-.17-1.48-.48-2.29-.18-.06.02-.09 0-.1-.06l-.03-.17.2-.44h.26c.06-.01.1-.03.15-.06.42-.3.83-.48 1.23-.53Z" fill="#FDC934"/><path d="M22.93 22.45c.5.4 1.03.63 1.55.7l.17.4c-.01.23.04.48.16.73.03.06.01.08-.05.05l-.1-.04c-.34-.2-.73-.34-1.15-.4l-.58-1.44Z" fill="#B57B28"/><path d="M35.4 23v.07c-.02.06-.06.08-.12.06a.96.96 0 0 1-.46-.36l.4.22c.03.02.07.03.11.02l.08-.01Z" fill="#985E1A"/><path d="M32.12 22.91h.12c.06.03.08.06.05.12-.22.38-.47.61-.64 1.09l-.42.62a.28.28 0 0 0-.05.15l-.07 1.27c-.16-.43-.2-.92-.08-1.47.14-.78.5-1.37 1.09-1.78Z" fill="#CBC0BC"/><path d="M24.68 22.96c.87.83 1.18 1.85.93 3.08l-.1-.77a4.22 4.22 0 0 0-.95-2.16c-.01-.09.03-.14.12-.15Z" fill="#EDE1DA"/><path d="m21.3 23.04-.21.44c-.05.13-.06.22-.03.29.01.02.03.05.06.06l.08.02h.87c.04 0 .07.01.1.03l.07.08c.04.04.08.05.13.04.26-.09.48-.08.64.02l-.96.45-.21-.14c-.06-.1-.15-.1-.28-.02h-.17c-.07-.07-.16-.09-.25-.04a.92.92 0 0 0-.5.75l-.2.2-.24.15a.13.13 0 0 1-.16 0c-.1-.07-.15-.2-.14-.4.04-.31 0-.6-.1-.85a.14.14 0 0 1 .06-.18.15.15 0 0 1 .07-.02c.4 0 .67-.19.8-.57.17-.24.36-.34.56-.3Z" fill="#EEEFE8"/><path d="M35.62 23.04c-.06.08-.06.16.01.25.04.04.06.1.07.14a.7.7 0 0 1-.11.54l-.3.13a1.2 1.2 0 0 0-.04.04l-.62-.04c-.19-.1-.4-.15-.64-.16l-.54-.17.34-.43a.32.32 0 0 1 .38-.09l1.02.47c.06.02.11.02.17-.02.2-.14.23-.36.08-.68l.18.02Z" fill="#FBE279"/><path d="M35.62 23.04c.19.05.32.14.4.26.16.3.33.5.53.62l-.46.03-.5.02a.7.7 0 0 0 .1-.54.3.3 0 0 0-.06-.14c-.07-.09-.07-.17 0-.25Z" fill="#EEEFE8"/><path d="M32.48 23.1c.05-.02.08-.02.1-.01.06.02.08.06.05.11a.58.58 0 0 0-.07.28.65.65 0 0 0-.31.53c0 .06.02.08.08.06l1.12-.3.54.17-.72.04a.28.28 0 0 0-.18.08.25.25 0 0 0-.08.18v.45c-.1-.14-.22-.17-.36-.1h-.05a.25.25 0 0 0-.22-.04c.17-.07.24-.18.22-.32-.01-.06-.04-.08-.1-.06l-.57.19c-.06.02-.08 0-.08-.06v-.15c.16-.43.37-.78.63-1.05Z" fill="#AD9061"/><path d="M23.5 23.89c.43.06.82.2 1.16.4l.04.27c-.4-.26-.68-.35-.84-.27l-.1.34c-.04.02-.06-.05-.08-.2.04-.18.02-.3-.08-.35a.69.69 0 0 0-.59-.06c-.16-.1-.38-.1-.64-.02-.05.01-.1 0-.13-.04a.34.34 0 0 0-.07-.08.16.16 0 0 0-.1-.03 21.5 21.5 0 0 0-.95-.02.14.14 0 0 1-.06-.06c-.03-.07-.02-.16.03-.29l.03.17c.01.06.04.08.1.06.81-.3 1.53 0 2.29.18Z" fill="#FBE279"/><path d="M24.65 23.55c.22.25.35.52.38.8 0 .05.03.1.07.14.09.08.12.15.12.28-.01.2 0 .4.06.61l-.11 1-.01.01a.04.04 0 0 1-.03.02h-.02l-.05-.03v-.01l-.07-1.5c.1-.03.1-.1.03-.18-.11-.13-.22-.17-.32-.14l-.04-.26.1.04c.06.03.08.01.05-.05-.12-.25-.17-.5-.16-.73Z" fill="#AD9061"/><path d="M36.66 23.94c-.06.52.35.2.21.9-.22.24-.42.37-.6.39l-.5-.03c.21-.4.32-.82.32-1.25l.46-.03c.04-.01.07 0 .1.02Z" fill="#3A2947"/><path d="M31.65 24.12v.1a.32.32 0 0 0-.03.33.16.16 0 0 1-.01.14l-.1.2c-.02.04 0 .08.04.1l.06.03a.13.13 0 0 0 .15-.03l.2-.23c-.06.38-.25.75-.12 1.16l.15.5c.14.6.46 1.13.96 1.6a.73.73 0 0 1-.32-.22c-.26-.35-.63-1.1-1.15-1-.05.01-.09 0-.1-.05a.34.34 0 0 0-.22-.2c-.1-.28-.12-.4-.05-.39l.07-1.27c0-.05.02-.1.05-.15l.42-.62Z" fill="#9C6C30"/><path d="M35.25 24.14v.3c0 .06-.03.08-.1.08h-.08c-.06 0-.09.03-.09.09 0 .1.06.24.15.38a.67.67 0 0 0-.26-.16c-.06-.01-.1 0-.13.05-.35.56-.83.67-1.41.34.58.15.96.02 1.14-.38.1-.23.16-.47.16-.74l.62.04Z" fill="#957048"/><path d="M35.3 24.1c-.04.56.12.92.48 1.1l.5.03-.56.17c-.24-.1-.44-.23-.59-.4a.77.77 0 0 1-.15-.4c0-.05.03-.08.1-.08h.08c.06 0 .09-.02.09-.08v-.3l.04-.04Z" fill="#84584C"/><path d="M31.84 24.15v.15c0 .06.03.08.1.06l.56-.19c.06-.02.09 0 .1.06.02.14-.05.25-.22.32a.93.93 0 0 0-.42.2l-.2.24a.13.13 0 0 1-.15.03l-.06-.03c-.05-.02-.06-.06-.04-.1l.1-.2a.16.16 0 0 0 0-.14.32.32 0 0 1 .03-.32l.03.12c.02.08.05.08.08 0l.1-.2Z" fill="#64442F"/><path d="m30.28 24.36.14.97.07.4-.15.43-.54-1.07-.02-.04c-.3-.3-.81-.2-1.19-.12-.31.16-.67.2-1.06.11h-.15l1.08-.17c.05-.01.09-.04.11-.09.12-.24.06-.4-.18-.49l-.37-.06c-.02 0-.03-.02-.02-.03 0-.02.02-.02.03-.02.67.12 1.35.12 2.02 0a.2.2 0 0 1 .16.03c.05.04.07.09.07.15Z" fill="#533431"/><path d="M28.39 24.3c.24.08.3.24.18.48a.15.15 0 0 1-.11.09l-1.08.18c-.25.24-.4.42-.42.54-.1.4-.28.79-.56 1.16a.16.16 0 0 1-.17.06.16.16 0 0 1-.08-.06.15.15 0 0 1-.03-.08l-.06-.73.4-1.19.83.05c.25.05.59.02 1.01-.08a.2.2 0 0 0 .09-.05.18.18 0 0 0 .05-.18.18.18 0 0 0-.05-.09c-.12-.1-.33-.13-.64-.07.17-.09.39-.1.64-.04Z" fill="#6D5975"/><path d="M21.56 24.3c-.13.37-.09.5.13.4-.26.54-.67.71-1.24.52l.2-.2c-.04.14.01.19.15.15.37-.1.57-.38.6-.85l.16-.01Z" fill="#AD9061"/><path d="M22.05 24.47c.05.28.18.5.36.66.02.08.05.14.09.16-.27.06-.42.25-.48.6-.27.04-.57.05-.89.01l-.38-.1a.1.1 0 0 0-.1.04.09.09 0 0 0-.01.1c.16.3.4.49.75.54-.24.58-.73.7-1.46.35a4.43 4.43 0 0 1-.03-1.86c0 .2.04.33.14.4.05.03.1.03.16 0l.25-.15c.57.2.98.02 1.24-.53.08-.13.13-.25.15-.36l.2.14Z" fill="#FBE279"/><path d="M27.75 24.33c.31-.06.52-.04.64.07l.05.09a.18.18 0 0 1-.05.18.2.2 0 0 1-.09.05c-.42.1-.76.13-1.01.08-.07-.1-.09-.2-.06-.27 0-.03.02-.05.04-.07a.17.17 0 0 1 .07-.04l.2-.05.21-.04Z" fill="#CDAD8D"/><path d="M23.86 24.3c-.03.1-.03.18 0 .24.03.05.07.07.12.07.32-.04.72.17 1.01.27l.06 1.49v.01l.06.02h.02a.04.04 0 0 0 .03-.01v-.02l.12-.99-.09 1.15c0 .05-.04.09-.1.1-.32.09-.56.23-.72.42-.63.8-1.2 1.79-2.46 1.97a.3.3 0 0 0-.26.08l-.13-.01.01-.04.2-.08h.17c.28-.02.52-.15.74-.37.19-.68.36-1.11.51-1.3.6-.7 1.12-1.28 1.27-2 .08-.4-.04-.46-.36-.2-.11.1-.31.21-.6.37a.56.56 0 0 0-.29 0l-.14-.03c-.16-.1-.06-.18.3-.22.35-.04.46-.27.43-.59l.1-.34Z" fill="#623A13"/><path d="m27.54 24.37-.2.05a.17.17 0 0 0-.07.04.16.16 0 0 0-.04.07c-.03.08 0 .17.06.27l-.83-.05c-.08-.1-.1-.23-.06-.41l1.14.03Z" fill="#CD998C"/><path d="M23.68 24.43c.02.15.04.22.08.2.03.32-.08.55-.44.59-.35.04-.45.11-.3.22-.12 0-.3-.04-.52-.15-.04-.02-.07-.08-.09-.16.73.06 1.16.16 1.27-.7Z" fill="#84584C"/><path d="M32.38 24.55a.25.25 0 0 1 .22.04c-.32.03-.58.08-.61.45-.07.68.1 1.28.52 1.81a.2.2 0 0 0 .14.08c.93.08 1.45-.08 1.54-.49l1.2.06c0-.03.04-.04.14-.03l.03.8-1.78.27a.16.16 0 0 0-.08.04.16.16 0 0 0-.05.16l.05.07c.55.48 1.2.78 1.96.9-.09.17-.2.3-.31.38l-1.17.06a5.58 5.58 0 0 1-1.23-1.13c-.5-.47-.82-1-.96-1.6l-.15-.5c-.13-.4.06-.78.12-1.16.1-.1.24-.16.42-.2Z" fill="#E49D29"/><path d="M33 24.7c.02.11.07.25.16.38l-.14.54c-.01.06-.05.09-.1.1a.58.58 0 0 1-.37-.07c-.06-.03-.08-.08-.07-.14l.17-.91c.14-.08.26-.05.36.09Z" fill="#FBE279"/><path d="M32.6 24.6h.05l-.17.9c-.01.07.01.12.07.15.1.06.22.08.37.07.05-.01.09-.04.1-.1l.14-.54c.1.05.15.1.17.14.58.33 1.06.22 1.4-.34.04-.04.08-.06.14-.05.08.02.16.07.26.16.15.18.35.32.6.41-.5.44-1.17.46-1.83.45a4.16 4.16 0 0 0-.18-.08c-.25-.06-.3 0-.14.2.1.14.31.3.61.47-.1.41-.6.57-1.54.49a.2.2 0 0 1-.14-.08 2.44 2.44 0 0 1-.52-1.81c.03-.37.29-.42.61-.45Z" fill="#FBBE32"/><path d="M36.87 24.85c.1.72.09 1.39-.03 2l-1.28.41-.03-.8c.2-.08.38-.24.53-.47a.1.1 0 0 0-.03-.14.1.1 0 0 0-.05-.01c-.08 0-.16 0-.25.03l-1.83-.02c.66.01 1.33-.01 1.82-.45l.56-.17c.17-.02.37-.15.6-.38Z" fill="#E5B85B"/><path d="M22.64 28.6c.07-.87.34-1.3.89-2.1.2-.3.18-.64-.07-1.03.29-.16.49-.28.6-.37.32-.26.44-.2.36.2-.15.72-.67 1.3-1.27 2-.15.19-.32.62-.5 1.3Z" fill="#985E1A"/><path d="M22.5 25.3c.22.1.4.15.53.14l.14.03.16.04c.05 0 .08.04.09.1.04.82-.53 1.32-1.22 1.92a.1.1 0 0 0-.04.1l.21.88a.19.19 0 0 1-.08.2l-.39.26h-.17c.01-.21.02-.43 0-.64 0-.23.02-.44.07-.63.1-.41.2-.83.28-1.26.36-.04.68-.19.96-.44a.12.12 0 0 0 .03-.06v-.06a.12.12 0 0 0-.04-.06c-.02-.02-.07-.03-.13-.01-.3.07-.58.1-.88.07.06-.34.21-.53.48-.59Z" fill="#E49D29"/><path d="M23.46 25.47c.25.39.27.73.07 1.03-.55.8-.82 1.23-.89 2.1-.22.22-.46.35-.74.37l.39-.26a.19.19 0 0 0 .08-.2l-.2-.88a.1.1 0 0 1 .03-.1c.69-.6 1.26-1.1 1.22-1.93 0-.05-.04-.08-.09-.1l-.16-.03c.11-.02.2-.03.3 0Z" fill="#B57B28"/><path d="M22.08 26.44c-.15.02-.27.03-.35.02a1 1 0 0 1 .3-.13c.06-.01.09-.05.08-.1 0-.04-.03-.06-.07-.07-.16-.05-.4-.05-.71 0l-.2-.26c.32.04.62.03.9-.02.29.03.58 0 .87-.07.06-.02.1-.01.13 0a.12.12 0 0 1 .04.13c0 .03-.02.05-.03.06-.28.25-.6.4-.96.44Z" fill="#64442F"/><path d="M21.73 26.46h-.28c-.12-.11-.16-.21-.12-.3.31-.05.55-.05.7 0 .05 0 .08.03.08.07 0 .05-.02.09-.08.1a1 1 0 0 0-.3.13Z" fill="#CDAD8D"/><path d="M35.36 26.18c.02.06.01.1-.01.14-.34.05-.66.04-.95-.01-.17-.04-.17-.07 0-.1.3-.07.62-.08.96-.03Z" fill="#766F87"/><path d="m21.45 26.47.28-.01c.08.01.2 0 .35-.02l-.28 1.26c-.05.2-.07.4-.06.63v.64l-.2.08a.34.34 0 0 1-.21 0c-.05-.01-.09-.06-.11-.13a1.33 1.33 0 0 0-.23-.38c-.15-.18-.2-.4-.28-.59-.07-.12-.14-.1-.24-.16-.06-.04-.1-.02-.1.05v.67c0-.4.11-.87-.33-1.12a.58.58 0 0 0-.24-.41c.07 0 .12-.04.13-.15.73.34 1.22.23 1.46-.35l.06-.01Z" fill="#FDC934"/><path d="M36.84 26.85a2 2 0 0 1-.27.6l-.9 1.25a3.78 3.78 0 0 1-1.97-.89.16.16 0 0 1-.05-.07.15.15 0 0 1 .05-.16.16.16 0 0 1 .08-.04l1.78-.28 1.28-.41Z" fill="#C58227"/><path d="m36.57 27.45-.03.4-.1 1.53c-.17.26-.43.33-.79.22a.18.18 0 0 1-.11-.1l-.2-.41c.13-.08.23-.2.32-.39l.9-1.25Z" fill="#5F5E85"/><path d="M29.79 28.92c.03.14.02.32-.01.53l-.08.07a.14.14 0 0 1-.15.04c-.4-.12-.6-.1-.62.07l-.17-.28h.06c.05 0 .07-.02.08-.07a5.17 5.17 0 0 1 .39-1.63.09.09 0 0 1 .13 0l.02.03.35 1.24Z" fill="#057ABB"/><path d="m21.53 29.05-.01.04c-.03.33-.17.5-.43.51-.2.01-.47-.13-.69-.2-.06-.3-.08-.6-.04-.89l.01-.67c0-.07.04-.09.1-.05.1.05.17.04.24.16.09.18.13.4.28.59.1.11.17.24.23.38.02.07.06.12.1.14.06.02.13.01.21 0Z" fill="#BCB7D5"/><path d="M30.98 28.8c.08.02.13.09.13.21 0 .06-.03.1-.1.1l-.12-.01c-.04-.01-.09-.06-.14-.13a.39.39 0 0 0-.37-.17c-.13 0-.2.08-.23.23a.15.15 0 0 0 .05.13l.5.48.05.03c.13.02.26.02.39-.02-.37.24-.76.14-1.2 0a.19.19 0 0 1-.11-.1l-.05-.1c.03-.2.04-.39 0-.53.19-.25.42-.36.69-.34.06 0 .1.03.13.08.19.27.31.32.38.14ZM25.19 29.78a.18.18 0 0 1-.14.1c-.1-.02-.17.03-.24.14l.02-.58c-.03.12 0 .2.1.26.04.03.1.03.13-.01.29-.26.32-.43.1-.5l.75-.53c.1-.07.17-.05.22.07l.12.34c.02.05.01.1 0 .15a.22.22 0 0 1-.11.11l-.95.45Z" fill="#84584C"/><path d="m31.23 29.62-.1.03a.95.95 0 0 1-.38.02.11.11 0 0 1-.05-.03l-.5-.48a.15.15 0 0 1-.05-.13c.03-.15.1-.22.23-.23.16-.01.28.05.37.17.05.07.1.12.14.13.04.01.08.02.13.01.06 0 .09-.04.09-.1 0-.12-.05-.2-.13-.2 0-.06 0-.1.02-.1a.2.2 0 0 1 .17-.05c.03 0 .06.02.09.04a.2.2 0 0 1 .06.07l.35.68c.03.05.01.08-.04.1l-.4.07Z" fill="#CD998C"/><path d="m28.76 29.35.17.28.3.47a.25.25 0 0 1-.12-.04c-.05-.03-.07-.02-.07.03 0 .06.02.11.05.16.22.32.4.66.55 1-.46-.34-.99-.55-1.59-.64a.5.5 0 0 0-.38.07c-.21.16-.4.27-.58.33.33-.51.68-1 1.04-1.47.14-.18.14-.35 0-.51.13-.2.34-.1.63.32Z" fill="#01A9E7"/><path d="m27.1 31-1.19 1.78a.18.18 0 0 0-.02.15c.05.16.13.32.26.47l.53.95c-.09-.13-.15-.08-.18.13a.16.16 0 0 0-.04-.06l-.82-1.46a.9.9 0 0 0-.15-.33c-.02-.21-.13-.33-.32-.35a.25.25 0 0 1-.14-.07.27.27 0 0 0-.15-.08l.08-.77.01.71.43.05c.06.01.1.04.13.1l.12.35.03.05a.1.1 0 0 0 .1 0 .1.1 0 0 0 .04-.03l.72-1.16 1.39-2.19.2-.21c.14.16.14.33 0 .5-.36.48-.71.97-1.04 1.48Z" fill="#C2E5F2"/><path d="M21.65 29.1c.08.13.18.25.32.37.04.03.05.08.04.13-.05.14-.14.29-.3.43-.05.06-.1.06-.17.02l-.22-.15a.16.16 0 0 0-.14-.02c-.43.14-.7-.02-.78-.47.22.06.49.2.7.2.25-.02.4-.2.42-.52l.13.01Z" fill="#5F5E85"/><path d="M25.16 29.19c.22.07.19.24-.1.5-.04.04-.09.04-.14.01-.09-.05-.12-.14-.09-.26.08-.12.2-.2.33-.25Z" fill="#CDAD8D"/><path d="m25.19 29.78.01.05c.27.79.2 1.54-.23 2.24l-.01-.71.1-1.48c.05 0 .1-.04.13-.1Z" fill="#003A78"/><path d="m25.05 29.88-.1 1.48-.07.77c-.07.03-.12.03-.16.01a.12.12 0 0 1-.08-.1l.1-1.2c0-.18-.05-.2-.18-.07l-1.15 1.17-.12.13c-.11.01-.18-.03-.2-.12l1.68-1.89c0-.02.02-.03.04-.04.07-.11.15-.16.24-.14Z" fill="#EEEFE8"/><path d="M31.35 29.9c-.3.29-.48.62-.55.99 0 .05 0 .1.03.15l1 1.81c-.15.05-.22.11-.22.2a2.3 2.3 0 0 1-.37-.66c-.08-.21-.2-.31-.38-.31.1.01.19.01.28 0l.03-.02.01-.02V32a.45.45 0 0 0-.14-.16.32.32 0 0 1-.13-.16l-.15-.4c-.29-.74-.1-1.2.59-1.38Z" fill="#003A78"/><path d="M31.84 30.1a.15.15 0 0 1-.1.01c-1.05.47-.48 1.67.13 2.24l.05.38-.1.12-1-1.8a.23.23 0 0 1-.02-.16c.07-.37.25-.7.55-1 .23-.04.4.03.49.21Z" fill="#057ABB"/><path d="m29.22 30.1 1.24 1.87-.33.1-.49-.82a5.87 5.87 0 0 0-.55-1 .27.27 0 0 1-.05-.16c0-.05.02-.06.07-.03l.11.04Z" fill="#5FABD4"/><path d="M31.74 30.11c.01.2.04.36.1.49l.03 1.75c-.61-.57-1.18-1.77-.13-2.24Z" fill="#01A9E7"/><path d="m19.05 30.08.07 1.2.05 1.24c-.72-.01-1.28-.17-2.05 0a.25.25 0 0 0-.14.07c-.17.19-.32.26-.45.2v-.08l.73-.76 1.79-1.87Z" fill="#EEEFE8"/><path d="m31.84 30.1 1.77 2.02h1.25c.04 0 .08.02.11.05.03.03.05.07.05.11v1.95l-.1 1.08c0 .07-.02.07-.04 0a.6.6 0 0 1-.03-.26l-.05-.67c-.02-.57-.09-1.16-.06-1.72 0-.17-.08-.26-.25-.29-.32-.05-.58-.02-.77.09v-.08c0-.05-.03-.07-.09-.07a.24.24 0 0 0-.1.04l-.02-.08c0-.06-.03-.1-.07-.14l-1.6-1.53c-.06-.13-.09-.3-.1-.49h.1Z" fill="#5FABD4"/><path d="M37.73 30.21a6.14 6.14 0 0 0-.1-.03.84.84 0 0 0 .04.54.2.2 0 0 0 .11.11c.12.05.22.12.3.22h-.13c-.08.01-.11.05-.1.13l.21.88c.02.08.07.11.15.11h.82a.15.15 0 0 0 .12-.07l.03-.06v.05c0 .05-.02.08-.07.08l-2.09.03c-.03 0-.04.01-.03.04l.02.06.02.02.03.01c.31.04.5.2.55.48l-.35-.3-.36-.2-.06-.13c-.04-.18-.03-.31.02-.4.27-.47.46-.98.55-1.53l-.01-.12c.06-.02.17 0 .33.08Z" fill="#0196DF"/><path d="m37.62 30.18 1.82 1.81c.05.08.11.14.18.17l1.15.02c.16 0 .24.08.23.23l-.01.23c0 .15-.08.22-.23.22l-1.39.02a.93.93 0 0 1-.29.06c-.06 0-.1 0-.16-.04-.28-.15-.96-.07-1.3-.1-.06-.27-.25-.43-.56-.47l-.03-.01-.02-.02-.02-.06c0-.03 0-.04.03-.04l2.09-.03c.05 0 .07-.03.07-.08v-.05l-1.1-1a.89.89 0 0 0-.3-.2.2.2 0 0 1-.11-.12.84.84 0 0 1-.05-.54Z" fill="#82CCE8"/><path d="M37.4 30.25c-.08.55-.27 1.06-.54 1.53-.05.09-.06.22-.02.4l-.2.04c.01-.02 0-.05-.02-.07l-.07-.02-.42.01.08-.09c.03-.04.03-.1 0-.14l-.1-.12.2-.34c.52-.22.88-.62 1.1-1.2Z" fill="#025496"/><path d="m33.52 32.35-.1.17-1.5.2-.05-.37-.02-1.75 1.6 1.53c.03.04.06.08.06.14l.01.08Z" fill="#003A78"/><path d="m24.64 32.04-.37.08c-.05.02-.09.05-.1.1l-.07.6c-.12-.4-.25-.57-.41-.48l-.28-.4 1.15-1.17c.13-.13.19-.1.17.07l-.1 1.2Z" fill="#025496"/><path d="M21.9 30.93c.12.3.26.3.43.02.07-.03.11-.02.14.05.11.3 0 .46-.3.5-.1.02-.25-.01-.48-.1-.2-.14-.43-.24-.72-.3l-.04-.14a.22.22 0 0 1-.02-.1c0-.06.04-.08.1-.06.32.13.62.17.9.13Z" fill="#957048"/><path d="M22.3 30.82c.3.12.62.15.97.1.16-.03.2.03.14.17l-.05.1a.27.27 0 0 1-.2.14c-.3.06-.59.13-.84.21a.56.56 0 0 1-.63-.13c.23.08.38.1.47.1.32-.05.42-.22.31-.5-.03-.08-.07-.1-.14-.06a2.62 2.62 0 0 1-.09-.04 1.16 1.16 0 0 0-.17-.04c-.01 0-.02 0 0 0 0 0 0-.01 0 0 .08 0 .16-.02.23-.05Z" fill="#533431"/><path d="m38.09 31.05 1.1.99-.04.06a.15.15 0 0 1-.12.06l-.82.01c-.08 0-.13-.03-.15-.1l-.2-.89c-.02-.08 0-.12.09-.12l.14-.01Z" fill="#025496"/><path d="M19.5 32.55a.8.8 0 0 0-.34.08l.01-.11-.05-1.23c.03 0 .05 0 .06.04 0 .02 0 .02.01 0l.04-.05.02-.01a.05.05 0 0 1 .07.02c.17.45.22.87.18 1.26Z" fill="#057ABB"/><path d="M21.32 31.6c-.14.45-.36.68-.65.7-.23.05-.34.17-.34.38 0 .26 0 .52-.03.78v.8c-.12.85-.2.84-.21-.01-.02-.46-.07-1.06-.16-1.8-.02-.1 0-.18.04-.25a.16.16 0 0 1 .13-.07c.16-.01.26-.03.28-.07a.6.6 0 0 1 .33-.02c.06.02.1 0 .12-.05l.14-.28a.21.21 0 0 1 .13-.14.27.27 0 0 1 .22.03Z" fill="#EA9AD3"/><path d="M20.98 34.8a.44.44 0 0 1-.04.1c-.04.06-.06.04-.08-.06-.1-.8-.11-1.6 0-2.4 0-.07-.03-.1-.09-.12l-.1-.01c.3-.03.51-.26.65-.71l-.34 3.2Z" fill="#6E8FC5"/><path d="M23.09 31.95c.02.1.09.13.2.12.04.07.03.13-.04.18-.02.02-.08.03-.15.04-.11 0-.2.04-.26.1l-.04.06-.02.03-.22 1.79c0 .05-.02.05-.05 0l-.15-.22.04-1.75c0-.06.02-.1.07-.13a.5.5 0 0 1 .3-.09c.06 0 .12 0 .16-.04l.16-.09Z" fill="#EA9AD3"/><path d="m23.41 31.94.28.4-.08 1.46c-.03.24-.04.5-.04.74 0 .07-.01.12-.04.15-.05.04-.08.03-.1-.02l-.1-.22-.06-1.37.06-.57a.14.14 0 0 0-.07-.13c-.1-.07-.24-.06-.42.01.07-.06.15-.1.26-.1.07 0 .13-.02.15-.04.07-.05.08-.1.04-.18l.12-.13Z" fill="#5F5E85"/><path d="M30.86 32.08c.17 0 .3.1.38.3.09.25.21.47.37.66l.7 1.34.03.02a.06.06 0 0 0 .08-.02 9.2 9.2 0 0 1 1-1.86l.1-.17a.24.24 0 0 1 .11-.04c.06 0 .09.02.09.07v.08l-1.25 2.2c.01.1-.04.14-.15.1a.09.09 0 0 1-.05-.03l-.53-.91-.73-1.33a.16.16 0 0 0-.13-.09l-.51-.04-.33.02c-.06 0-.1.04-.1.1l-.02.24c-.12.01-.18-.13-.19-.41.01-.15.14-.23.4-.25l.33-.1c.04.11.18.15.4.12Z" fill="#A6A0D1"/><path d="M24.64 32.04c0 .05.03.08.08.1.04.02.1.02.16-.01.05 0 .1.03.15.08.04.04.08.06.14.07.2.02.3.14.32.35-.17-.43-.55-.3-.9-.23a.18.18 0 0 0-.1.06.17.17 0 0 0-.05.1l-.14 2.68-.04.74-.05.02a.04.04 0 0 1-.03 0v-.01l-.01-.02-.04-.3-.03-2.85.07-.6c.01-.05.05-.08.1-.1l.37-.08Z" fill="#DD62C6"/><path d="M29.24 32.18v1.88c0 .33-.1.64-.16.97 0 .02-.01.03-.03.04a.09.09 0 0 1-.04.03h-.06a.07.07 0 0 1-.07-.03v-.02l-.05-.46v-2.23c-.22-.24-.45-.33-.69-.26.5-.08.87-.05 1.1.08Z" fill="#6E8FC5"/><path d="M28.14 32.1c.24-.07.47.02.7.26a1.59 1.59 0 0 0-.76.06.23.23 0 0 0-.11.1 40 40 0 0 1-1.02 1.83c-.12.2-.27.25-.45.13.03-.21.1-.26.18-.13l.93-1.66c.15-.37.33-.56.53-.6Z" fill="#EA9AD3"/><path d="M36.13 32.14a4.11 4.11 0 0 1 .49.01c.02.02.03.04.02.07l.08 2.83-.05.65v.01h-.03a37.3 37.3 0 0 1-.2-1.22l-.07-1.96c0-.06-.04-.1-.1-.12-.14-.04-.3-.05-.47-.02l-.09-.04c-.07-.05-.12-.04-.15.01a.38.38 0 0 0-.03.18c0 .05-.03.08-.09.07l-.1-.02c-.03-.11-.01-.24.04-.4.18-.08.43-.1.75-.05Z" fill="#6E8FC5"/><path d="M20.98 34.8c.04.24.03.44-.03.6-.14.03-.18.15-.11.36.01.05.05.1.1.13.52.34 1.15.55 1.55-.06l.17-.78a3.9 3.9 0 0 0 .61-1.97l.05 1.37-.36 1.55a.24.24 0 0 1-.07.12c-.75.66-1.55.69-2.4.1-.13-.1-.22-.07-.27.08l-.09.26a2.1 2.1 0 0 1-.3-.9l.07.06c.05.05.08.04.1-.03l.02-.08c.04-.13.06-.12.06.01 0 .09.02.15.04.2.1.14.16.11.16-.08l.02-2.28.03-.78c0-.2.1-.33.34-.37l.1.01c.06.01.1.05.08.11-.1.8-.1 1.6.01 2.41.02.1.04.12.08.06a.44.44 0 0 0 .04-.1Z" fill="#591073"/><path d="M29.73 32.3c0 .3.07.43.19.42l-.02 2.65a13.98 13.98 0 0 1-.15-2.37c0-.1-.02-.24-.06-.44l.04-.25Z" fill="#AB5074"/><path d="M35.71 32.35c-.08.03-.1.09-.07.18.03.07.04.12.04.16.04 1.4.06 2.8.05 4.2-.07.04-.11.05-.13.02a.32.32 0 0 1-.08-.19l-.18-3.96a.32.32 0 0 1 0-.17l.1.02c.06 0 .09-.02.09-.07 0-.08 0-.14.03-.18.03-.05.08-.06.15 0Z" fill="#5F3444"/><path d="M23.27 33.08a3.9 3.9 0 0 1-.6 1.97l.17-2.66c.18-.07.32-.08.42-.01l.05.05.02.08-.06.57Z" fill="#5913A4"/><path d="M25.5 32.63c.06.1.11.21.14.33-.31.27-.68.44-1.1.48-.06.01-.08.04-.09.1l-.14 1.85-.01-.15.14-2.67c0-.04.02-.08.04-.1a.18.18 0 0 1 .1-.07c.36-.07.74-.2.91.23ZM28.84 32.36l-.01 2.23-.02-1c0-.1-.03-.1-.08-.01a.46.46 0 0 1-.18.19c-.05.02-.09.02-.12-.03a.67.67 0 0 0-.34-.24.15.15 0 0 0-.15.03l-1.03 1a.26.26 0 0 1-.15.07c-.2.02-.3-.03-.3-.18l.04.06c.18.12.33.07.45-.13a40 40 0 0 0 1.02-1.83.23.23 0 0 1 .11-.1c.17-.08.42-.1.76-.06Z" fill="#6816C7"/><path d="M30.37 32.36c-.35.07-.49.48-.4 1.24v2.66c0 .27-.09.54-.26.78l-.05-3.76c-.03-.24-.02-.49.03-.72.04.2.06.35.06.44a13.97 13.97 0 0 0 .15 2.37l.02-2.65.02-.25c0-.05.04-.08.1-.09l.33-.02Z" fill="#5F3444"/><path d="M31.74 33.82a6.5 6.5 0 0 0-1.74-.06.33.33 0 0 0-.04-.16c-.08-.76.06-1.17.41-1.24l.51.04c.06.01.1.04.13.09l.73 1.33Z" fill="#1E25A3"/><path d="M34.8 34.38a.71.71 0 0 0-.45.13c-.06.04-.09.03-.09-.03l-.04-.68c-.01-.26-.1-.29-.25-.07a3.55 3.55 0 0 1-.65.67.2.2 0 0 1-.08 0 .95.95 0 0 0-.77.26l1.25-2.2c.19-.1.45-.14.77-.09.17.03.25.12.24.29-.02.56.05 1.15.07 1.72Z" fill="#003A78"/><path d="m22.84 32.4-.18 2.65-.17.78-.02-.1c0-.04-.03-.06-.08-.07h-.08l.05-1.61.15.23c.03.04.05.04.05-.01l.22-1.79s0-.02.02-.03l.04-.06Z" fill="#DD62C6"/><path d="M36.44 34.49c-.23-.4-.38-.29-.45.32-.03.23-.06.23-.08 0-.1-.9-.14-1.7-.1-2.42.16-.03.32-.02.47.02.05.02.08.06.09.12l.07 1.96Z" fill="#025496"/><path d="M19.17 32.52a.28.28 0 0 0-.01.11l-.13.09a.75.75 0 0 0-.34.35c-.03.05-.06.07-.12.05l-.68-.14c-.58-.1-.9.06-1 .48.64.41 1.29.73 1.95.95.11.04.28.17.5.4 0 .06.03.14.08.23l.01.08c-.01.06-.05.08-.1.04l-.6-.49-.72-.32-.66-.2a1.67 1.67 0 0 1-1.05-.91.4.4 0 0 0 .01-.24c.08-.13.15-.2.22-.21.13.06.28-.01.45-.2a.25.25 0 0 1 .14-.08c.77-.16 1.33 0 2.05 0Z" fill="#EA9AD3"/><path d="M19.93 32.46c.1.73.14 1.33.16 1.79.02.85.09.86.2 0v-.8l-.01 2.3c0 .18-.05.2-.16.06-.02-.04-.04-.1-.04-.19 0-.13-.02-.14-.06 0l-.02.07c-.02.07-.05.08-.1.03l-.06-.06v-2.67c0-.06-.04-.1-.1-.1a.43.43 0 0 0-.35.11c-.05-.02-.07-.1-.05-.22 0-.05-.02-.08-.09-.08l-.22.02.13-.09a.8.8 0 0 1 .34-.08c.04.06.1.12.15.15.08.05.15.05.2 0a.55.55 0 0 0 .08-.24Z" fill="#AB5074"/><path d="M33.42 32.52a9.19 9.19 0 0 0-1.02 1.88.06.06 0 0 1-.08-.02l-.71-1.34c0-.08.07-.14.22-.19l.09-.12 1.5-.2Z" fill="#01112E"/><path d="M38.92 32.9c.05.03.1.04.16.04.1 0 .2-.03.29-.06.58-.12.27.23.24.69l-.03-.2c0-.04-.03-.05-.07-.03-.02.02-.03.04-.03.07-.03.32-.01.67.05 1.05l-.04.29c-.03.23.03.42.17.58l-.02.33v1.12c0 .02-.01.03-.03.03-.03 0-.04-.02-.04-.04l.01-.4c0-.06-.03-.1-.09-.13a.92.92 0 0 1-.57-.56v-.03c.01.04.03.07.06.08l.05-.01.01-.02c.2-.13.23-.23.06-.3-.23-1.79-.9-2.9-.18-2.5Z" fill="#003A78"/><path d="m25.64 32.96.82 1.46c0 .15.1.2.3.18.06 0 .1-.03.15-.07l1.03-1a.15.15 0 0 1 .15-.03c.13.04.25.12.34.24.03.05.07.05.12.03.08-.05.14-.11.18-.2.05-.08.08-.08.08.02l.02 1-.55.54c-.04.04-.07.03-.09-.02l-.32-.72a.91.91 0 0 1 .32-.6l.02-.03v-.04a.07.07 0 0 0-.01-.03.07.07 0 0 0-.04-.02.26.26 0 0 0-.19.04.3.3 0 0 0-.12.13c-.2.4-.42.75-.68 1.05a.97.97 0 0 0-.22.34c-.06.2-.15.55-.35.67-.13.08-.27.07-.42-.04l-.66-1.43a.89.89 0 0 1-.12-.6c.01-.14-.05-.19-.18-.16l-.08.02a.24.24 0 0 0-.12.07.22.22 0 0 0-.06.12l-.1.91c-.02.06-.04.1-.1.13-.12.07-.28.23-.45.47l.14-1.86c0-.05.03-.08.09-.09.42-.04.79-.2 1.1-.48Z" fill="#5913A4"/><path d="M16.31 33a.4.4 0 0 1 0 .24 1 1 0 0 0 0 .8c-.14.15-.02.32.34.51l1.43.76c.08.05.08.08-.02.1-.03.01-.09 0-.17-.02l-1.13-.59c-.53-.27-.65-.46-.68-1.02-.02-.35.06-.6.23-.78Z" fill="#AB5074"/><path d="M38.55 36.9c.04-.04.05-.09.05-.14a25 25 0 0 0-.15-3.34v-.11c0-.07.04-.1.1-.08.03 0 .06.02.08.04.02.02.04.05.04.1.16.93.09 2.06.08 3.49 0 .06-.04.09-.1.08a.24.24 0 0 1-.1-.03Z" fill="#5F3444"/><path d="M16.3 33.24c.23.46.58.77 1.05.9l.66.21.71.32c-.1.05-.14.16-.14.33a.15.15 0 0 1-.07.13.16.16 0 0 1-.15 0c-.57-.25-1.12-.5-1.67-.77a1.28 1.28 0 0 1-.38-.32 1 1 0 0 1 0-.8Z" fill="#DD62C6"/><path d="M39.61 33.57c.06.3.04.6-.08.89a4.32 4.32 0 0 1-.05-1.05c0-.03.01-.05.03-.07.04-.02.06 0 .07.03l.03.2Z" fill="#6E8FC5"/><path d="M25.52 34.43a.45.45 0 0 1-.06.02c-.03 0-.05.03-.05.06l.01 1.06c-.2-.02-.3-.14-.3-.38a.04.04 0 0 0 0-.03.05.05 0 0 0-.04-.01h-.04c-.03 0-.04 0-.04.03-.04.59-.33.97-.88 1.14v-.66l.05.31V36a.03.03 0 0 0 .04.01l.05-.01v-.01l.04-.74v.15c.18-.24.34-.4.47-.47a.16.16 0 0 0 .08-.13l.11-.9c0-.05.03-.1.06-.13a.24.24 0 0 1 .12-.07l.08-.02c.13-.03.2.02.18.15-.03.24.01.44.12.6Z" fill="#48137E"/><path d="m30.97 34.14-.07 1.32c0 .1-.03.1-.05 0l-.1-.34-.04-1.21v-.04l.04-.02a.07.07 0 0 1 .07 0 .4.4 0 0 1 .15.29Z" fill="#6E8FC5"/><path d="M20.95 35.4c.17.48.5.65 1 .53a.58.58 0 0 0 .36-.27h.08c.05 0 .08.03.08.08l.02.09c-.4.6-1.03.4-1.56.06a.23.23 0 0 1-.1-.13c-.06-.21-.02-.33.12-.37ZM17.73 35.99c.26-.05.5-.16.74-.33.05-.04.08-.03.1.03l.02.06a.12.12 0 0 1-.03.1c-.36.4-.81.55-1.37.41a4.4 4.4 0 0 0-1.11-.15c-.06 0-.09-.02-.08-.08l.06-.41.02-.06c.02-.05.04-.09.09-.1.03-.02.07 0 .11.02.37.2 1.03.53 1.45.5Z" fill="#EA9AD3"/><path d="M32.16 38.03c.06-.01.1-.05.12-.1l.16-.28c.12-.23.2-.21.22.04.01.15.1.27.26.37l1.28.16c.02 0 .03.01.03.03a.1.1 0 0 1-.04.06.08.08 0 0 1-.05.02l-6.38.1c-.03 0-.05 0-.05.04V38.54l.02.01 2.5.1c.11 0 .12.03.02.08-.1.06-.23.1-.39.12h-.08l-1.4-.03-1.78-.02.13-.05c.15-.06.15-.12 0-.18-.6-.2-1.1-.18-1.85-.18a10.18 10.18 0 0 0-1.74.16c-.35.17-.32.26.07.26h1.32l-2.66.04c-.02 0-.03-.01-.02-.03v-.05c0-.02.02-.03.05-.03h.34a.1.1 0 0 0 .07-.03.1.1 0 0 0 .03-.06c.02-.08 0-.15-.07-.21a.13.13 0 0 1-.04-.14c.02-.08.09-.15.2-.2.32-.03.66-.05 1.01-.06 2.74-.05 7.06-.01 8.72-.01Z" fill="#8A799F"/><path d="M22.43 38.1c-.11.05-.18.12-.2.2-.02.05 0 .1.04.14.06.06.09.13.07.21a.1.1 0 0 1-.03.06.1.1 0 0 1-.07.02h-.34c-.03 0-.04.02-.05.04v.05c0 .02 0 .03.02.03l2.66-.03 2.07-.02 1.78.02H25.44a.2.2 0 0 0-.15.07c-.43.4-.92.65-1.45.74-1.04.18-2.23.29-3.55.3l-.79-.05c.02-.06.04-.08.05-.06l1.4-1.83c0-.02 0-.04-.02-.05a.33.33 0 0 0-.04-.01l.14-.12c.04-.03.09-.03.13 0 .32.28.75.38 1.27.28Z" fill="#7A1783"/><path d="m20.89 37.93.04.01c.02.01.03.03.01.05l-1.4 1.83c-.04.02-.08.02-.1.01-.04-.01-.04-.04-.03-.08a.53.53 0 0 1 .08-.18l.45-.51.95-1.13Z" fill="#8A799F"/><path d="M34.33 38.1v.04l.07.1a.1.1 0 0 1 0 .08.12.12 0 0 1-.06.06.74.74 0 0 1-.17.08c-.23.04-.23.09 0 .15.13.04.3.05.49.05 0 0 .02 0 .03.02l.02.02.01.05c.01.05 0 .07-.05.07l-4.8.03a.99.99 0 0 0 .38-.12c.1-.05.1-.08-.02-.09l-2.5-.09h-.02v-.08c0-.03.02-.05.05-.05l6.38-.1h.05a.1.1 0 0 0 .04-.07c0-.02 0-.03-.03-.03l-1.28-.16 1.41.04Z" fill="#766F87"/><path d="m26.6 38.8-2.07.02H23.2c-.4 0-.42-.1-.07-.27l.3-.06c.47-.06.95-.1 1.44-.1.75 0 1.26-.01 1.84.18.16.06.16.12 0 .18l-.12.05Z" fill="#D9D6EF"/><path d="M27.26 38.83c-.66.81-1.53 1-2.56 1.13l-4.13.04-.28-.07c1.32-.01 2.5-.12 3.55-.3a2.8 2.8 0 0 0 1.45-.74.2.2 0 0 1 .15-.06h1.82Z" fill="#4C175C"/><path d="M29.11 13.59c-.05.2-.05.4 0 .6l.02.02h.02a.05.05 0 0 0 .05 0c.07-.1.1-.2.11-.33.28.22.35.5.22.8a.14.14 0 0 1-.12.08c-.07.01-.13 0-.17-.06a.12.12 0 0 0-.1-.04c-.15.03-.23 0-.24-.07a.08.08 0 0 0-.04-.05.08.08 0 0 0-.06 0l-.1-.01c-.03-.02-.04-.04-.04-.08l.04-.95c0-.03 0-.06.03-.08a.15.15 0 0 1 .07-.05h.1c.03 0 .06.02.08.05l.13.17ZM33.27 17.94c-.3.08-.56 0-.78-.21a.15.15 0 0 1 .01-.23.16.16 0 0 1 .08-.03c.33-.05.88.18.96.53.02.09 0 .1-.07.03l-.06-.06a.13.13 0 0 0-.14-.03Z" fill="#8A799F"/><path d="M33.62 19.51c.03.2.15.33.37.36.27.04.52.12.74.23.51.34.79.78.84 1.32a.47.47 0 0 1-.23.22 1.19 1.19 0 0 0-.6-.31l-.02-.01-.04-.04.55.16.04-.02c.03-.02.02-.03 0-.04a2.96 2.96 0 0 1-1.28-.86l-.02.01-.01.02v.02c.06.1.18.19.23.28.07.1.06.1-.03 0-.18-.2-.4-.38-.64-.52a.14.14 0 0 1-.08-.12l-.01-.64.1-.23a.13.13 0 0 0-.03-.13c-.07-.07-.08-.14-.05-.2.1-.18.16-.17.2.02 0 .07 0 .23-.03.48Z" fill="#FBE279"/><path d="M34.73 20.1a2.4 2.4 0 0 0-.74-.23c-.22-.03-.34-.15-.37-.36.49.02.9.11 1.25.28.05.02.08.05.12.1.03.05.01.08-.05.09-.12.01-.19.05-.21.12Z" fill="#088F81"/><path d="M33.43 19.57v.64c.01.05.04.1.09.12.25.14.46.31.64.53.09.1.1.1.03-.01-.05-.1-.17-.18-.23-.28a.03.03 0 0 1 .01-.04.04.04 0 0 1 .05 0c.35.4.77.68 1.24.85.03 0 .04.02 0 .04l-.03.02-.54-.16s-.01 0 0 0l.03.04.03.01c.23.05.43.15.6.3a2.88 2.88 0 0 1-.85-.3l-.39-.3c-.05-.04-.06-.04-.03.02.06.15.2.24.42.28l.43.24a.33.33 0 0 1-.18.03c-.51-.05-.92-.18-1-.7 0-.06-.04-.1-.1-.11l-.15-.04c-.06-.01-.1-.05-.09-.1l.02-1.08Z" fill="#64442F"/><path d="M34.5 21.33c-.21-.04-.36-.13-.42-.28-.03-.05-.02-.06.03-.02l.4.3Z" fill="#985E1A"/><path d="M35.34 21.64c.1-.06.18-.13.23-.22-.01.1.03.14.1.15a2.36 2.36 0 0 1 1.84 1.07v.02l-.02.01h-.03c-.08 0-.17-.07-.26-.2a.23.23 0 0 0-.13-.08l-.91-.23c-.26-.06-.3.01-.14.21.13.17.15.39.05.67-.02-.23.02-.44-.12-.62l-.28-.37a.27.27 0 0 0-.16-.1c-.06-.01-.13 0-.2.06-.07.03-.1.02-.08-.05l.05-.13c.03-.05.02-.1-.04-.12l-.3-.14-.44-.24c.3.15.57.26.84.3Z" fill="#088F81"/><path d="m34.93 21.57.31.14c.06.03.07.07.04.12a.35.35 0 0 0-.05.13c-.01.07.01.08.08.05.07-.05.14-.07.2-.06.05 0 .1.04.16.1l.28.37c.14.18.1.4.12.62a5.59 5.59 0 0 1-1.45-.77.16.16 0 0 1-.06-.08.16.16 0 0 1 .05-.17.17.17 0 0 1 .09-.04.65.65 0 0 0 .29-.1c.2-.15.18-.23-.08-.24 0 0-.06 0-.16-.04.06.01.12 0 .18-.03Z" fill="#07AC91"/><path d="M25.74 21.42c.02-.12.06-.12.11 0l.39.86c.03.07.02.18-.02.35l-.03.03c-.1.07-.16.06-.2-.01a1.86 1.86 0 0 1-.25-1.23Z" fill="#D9D6EF"/><path d="M28.46 22.75c.07.12.05.23-.05.34-.05.05-.05.1 0 .15l.03.03a.07.07 0 0 1-.01.11.49.49 0 0 1-.43.04.52.52 0 0 1-.17-.1.45.45 0 0 1-.1-.15.36.36 0 0 1-.04-.18c0-.05.03-.1.06-.15.12-.16.31-.22.59-.17.05 0 .1.03.12.08Z" fill="#5F5E85"/><path d="M26.4 26.5a.02.02 0 0 1-.01.02h-.03c-.08-.03-.14-.11-.16-.22a.74.74 0 0 1 .04-.39l.17-.46a.86.86 0 0 1 .1-.18c.03-.06.07-.1.11-.14l.14-.08a.22.22 0 0 1 .13 0h.01l.01.02v.01l-.51 1.43Z" fill="#BCB7D5"/><path d="M29.22 26.14c.04.24.16.43.28.41.12-.01.2-.23.16-.47-.04-.25-.16-.43-.28-.41-.12.01-.2.22-.16.47Z" fill="#A6A0D1"/><path d="M34.65 27.93a1 1 0 0 1-.02-.14c0-.07.03-.11.1-.13l.39-.13c.07-.03.12 0 .13.07l.1.45c.02.06.01.11-.03.16-.13.16-.29.17-.48.04l-.08-.05a.15.15 0 0 1-.08-.11 2.08 2.08 0 0 0-.03-.16Z" fill="#985E1A"/><path d="m18.63 32.2-1.22-.04a.05.05 0 0 1-.04-.03.04.04 0 0 1 0-.05l1.25-1.2c.16-.16.24-.13.23.1-.01.29-.02.95-.17 1.2l-.05.02Z" fill="#0196DF"/><path d="M33.87 34.5c-.05-.14-.05-.24 0-.3.14-.22.21-.2.2.07l-.07.84h-.05c-.02 0-.03-.01-.03-.03 0-.22.02-.36-.05-.58Z" fill="#6D5975"/></svg>