<svg width="56" height="56" viewBox="0 0 56 56" xmlns="http://www.w3.org/2000/svg"><path fill="url(#a)" d="M0 0h56v56H0z"/><path d="M14.58 22.6a.1.1 0 0 1 .08.03c1.65 1.64 5.03 4.96 10.13 9.96a4.4 4.4 0 0 0 3.2 1.25 4.4 4.4 0 0 0 3.22-1.25l10.13-9.95a.1.1 0 0 1 .08-.04c.03 0 .05.02.08.04l3.46 3.48a.13.13 0 0 1 0 .18l-10.05 9.89a9.47 9.47 0 0 1-6.91 2.8 9.47 9.47 0 0 1-6.92-2.8l-10.04-9.9a.13.13 0 0 1-.04-.09c0-.03.01-.06.04-.09l3.47-3.48a.1.1 0 0 1 .07-.03Zm13.34-3.56a.12.12 0 0 1 .18 0l3.55 3.54c.04.05.04.13 0 .18l-3.54 3.56a.12.12 0 0 1-.17 0l-3.55-3.55a.13.13 0 0 1 0-.17l3.53-3.56Z" fill="#302E2D"/><defs><linearGradient id="a" x1="49.25" y1="16.92" x2="6.08" y2="40.83" gradientUnits="userSpaceOnUse"><stop stop-color="#FF97D6"/><stop offset="1" stop-color="#F8B994"/></linearGradient></defs></svg>