<svg width="56" height="56" viewBox="0 0 56 56" xmlns="http://www.w3.org/2000/svg"><path fill="url(#a)" d="M0 0h56v56H0z"/><path d="M15.18 15h25.95a1 1 0 0 1 .9.52L44.83 20c.2.31.21.6.05.89-1.4 2.36-5.88 9.88-13.45 22.55-.22.37-.58.56-1.07.55l-4.9.01c-.57 0-.97-.19-1.2-.58a13600.63 13600.63 0 0 0-12.82-21.84 3.51 3.51 0 0 1-.42-.86c-.07-.3-.01-.6.17-.9.9-1.41 1.76-2.82 2.6-4.22.14-.26.33-.43.56-.5.17-.07.44-.1.82-.1Zm-2.38 6.08c-.02 0-.04 0-.05.02a.11.11 0 0 0-.06.1l.01.05 12.37 21.1c.16.28.4.42.69.41a231.86 231.86 0 0 1 3.76-.01.1.1 0 0 0 .06-.08.1.1 0 0 0 0-.04.63.63 0 0 0-.08-.18L19.43 25.59c-.18-.3-.21-.57-.08-.77.12-.2.37-.3.74-.3h9.61c.26 0 .47-.12.61-.35a349.36 349.36 0 0 1 1.8-2.94.14.14 0 0 0-.07-.14 17894.1 17894.1 0 0 0-19.24 0Zm28.55-4.13a.11.11 0 0 0-.04.03l-.1.14-9.35 16.2c-.28.49-.48.81-.61.98a.58.58 0 0 1-.4.24.56.56 0 0 1-.45-.14c-.12-.1-.23-.23-.32-.37-1.77-2.86-3.42-5.53-4.93-8.01a.54.54 0 0 0-.5-.28 503.29 503.29 0 0 1-3.54.02.1.1 0 0 0-.04.04.1.1 0 0 0-.01.05l.01.05 9.6 16.12.03.03a.08.08 0 0 0 .1-.01 3846.31 3846.31 0 0 0 12.67-21.2.63.63 0 0 0 0-.7 255.74 255.74 0 0 1-2.02-3.18.11.11 0 0 0-.1 0Zm-25.9-.72c-.39 0-.67.14-.83.41a256.84 256.84 0 0 1-1.9 3.12.12.12 0 0 0 .07.11l.07.02h20.17c.23 0 .4.02.52.05.2.06.32.19.37.38.05.18.02.35-.08.52-.52.86-2.14 3.45-4.84 7.77l-.07.1a1.6 1.6 0 0 0-.23.47c-.03.14.02.3.13.48a170.04 170.04 0 0 1 1.85 2.95.13.13 0 0 0 .17-.04l9.33-16.14a.13.13 0 0 0 .01-.06.13.13 0 0 0-.06-.12 9164.14 9164.14 0 0 1-24.67-.03Zm11.2 9.52a.12.12 0 0 0-.1.06.12.12 0 0 0 0 .11l1.21 1.99a.12.12 0 0 0 .21 0l1.23-1.98a.12.12 0 0 0 .02-.05c0-.03 0-.05-.02-.07a.12.12 0 0 0-.1-.06h-2.45Z" fill="#fff"/><defs><linearGradient id="a" x1="28" y1="0" x2="28" y2="56" gradientUnits="userSpaceOnUse"><stop stop-color="#029F4E"/><stop offset="1" stop-color="#047C3E"/></linearGradient></defs></svg>